<mxfile host="app.diagrams.net" modified="2023-04-25T01:37:31.180Z" agent="Mozilla/5.0 (Macintosh; Intel Mac OS X 10_15_7) AppleWebKit/605.1.15 (KHTML, like Gecko) Version/16.2 Safari/605.1.15" version="21.2.1" etag="zjSwjdvcwgkNGcK5ypFa" type="github">
  <diagram name="第 1 页" id="jI8-dRNjJcgJ4-pZwI1p">
    <mxGraphModel>
      <root>
        <mxCell id="0" />
        <mxCell id="1" parent="0" />
      </root>
    </mxGraphModel>
  </diagram>
</mxfile>
